<svg width="20px" height="20px" viewBox="0 0 1024 1024" class="icon" xmlns="http://www.w3.org/2000/svg" fill="#000000"><g id="SVGRepo_bgCarrier" stroke-width="0"></g><g id="SVGRepo_tracerCarrier" stroke-linecap="round" stroke-linejoin="round"></g><g id="SVGRepo_iconCarrier"><path fill="#000000" d="M160 826.88L273.536 736H800a64 64 0 0064-64V256a64 64 0 00-64-64H224a64 64 0 00-64 64v570.88zM296 800L147.968 918.4A32 32 0 0196 893.44V256a128 128 0 01128-128h576a128 128 0 01128 128v416a128 128 0 01-128 128H296z"></path><path fill="#000000" d="M352 512h320q32 0 32 32t-32 32H352q-32 0-32-32t32-32zM352 320h320q32 0 32 32t-32 32H352q-32 0-32-32t32-32z"></path></g></svg>